# xmcd
#
# Track frame offsets:
#	150
#	19022
#	34433
#	47568
#	72667
#	88961
#	102020
#	119661
#	131185
#	144956
#	159393
#	178378
#
# Disc length: 2586 seconds
#
# Revision: 0
# Processed by: cddbd v1.5.2PL0 Copyright (c) Steve Scherf et al.
# Submitted via: audiograbber 1.83.01
#
DISCID=b20a180c
DTITLE=Neil Diamond - His 12 Greatest Hits
DYEAR=1974
DGENRE=Pop
TTITLE0=Sweet Caroline
TTITLE1=Brother Love's Travelling Salvation Show
TTITLE2=Shilo
TTITLE3=Holly Holy
TTITLE4=Brooklyn Roads
TTITLE5=Cracklin' Rosie
TTITLE6=Play Me
TTITLE7=Done Too Soon
TTITLE8=Stones
TTITLE9=Song Sung Blue
TTITLE10=Soolaimon
TTITLE11=I Am ... I Said
EXTD=
EXTT0=
EXTT1=
EXTT2=
EXTT3=
EXTT4=
EXTT5=
EXTT6=
EXTT7=
EXTT8=
EXTT9=
EXTT10=
EXTT11=
PLAYORDER=
